<svg width="153" height="95" viewBox="0 0 153 95" fill="none" xmlns="http://www.w3.org/2000/svg">
<circle cx="6.5" cy="7.5" r="2.5" fill="#FAF4D9"/>
<circle cx="18.9781" cy="7.5" r="2.5" fill="#FAF4D9"/>
<circle cx="31.4564" cy="7.5" r="2.5" fill="#FAF4D9"/>
<circle cx="43.9346" cy="7.5" r="2.5" fill="#FAF4D9"/>
<circle cx="56.413" cy="7.5" r="2.5" fill="#FAF4D9"/>
<circle cx="68.8911" cy="7.5" r="2.5" fill="#FAF4D9"/>
<circle cx="81.3696" cy="7.5" r="2.5" fill="#FAF4D9"/>
<circle cx="93.8478" cy="7.5" r="2.5" fill="#FAF4D9"/>
<circle cx="106.326" cy="7.5" r="2.5" fill="#FAF4D9"/>
<circle cx="118.804" cy="7.5" r="2.5" fill="#FAF4D9"/>
<circle cx="6.5" cy="23.332" r="2.5" fill="#FAF4D9"/>
<circle cx="18.9781" cy="23.332" r="2.5" fill="#FAF4D9"/>
<circle cx="31.4564" cy="23.332" r="2.5" fill="#FAF4D9"/>
<circle cx="43.9346" cy="23.332" r="2.5" fill="#FAF4D9"/>
<circle cx="56.413" cy="23.332" r="2.5" fill="#FAF4D9"/>
<circle cx="68.8911" cy="23.332" r="2.5" fill="#FAF4D9"/>
<circle cx="81.3696" cy="23.332" r="2.5" fill="#FAF4D9"/>
<circle cx="93.8478" cy="23.332" r="2.5" fill="#FAF4D9"/>
<circle cx="106.326" cy="23.332" r="2.5" fill="#FAF4D9"/>
<circle cx="118.804" cy="23.332" r="2.5" fill="#FAF4D9"/>
<circle cx="6.5" cy="39.166" r="2.5" fill="#FAF4D9"/>
<circle cx="18.9781" cy="39.166" r="2.5" fill="#FAF4D9"/>
<circle cx="31.4564" cy="39.166" r="2.5" fill="#FAF4D9"/>
<circle cx="43.9346" cy="39.166" r="2.5" fill="#FAF4D9"/>
<circle cx="56.413" cy="39.166" r="2.5" fill="#FAF4D9"/>
<circle cx="68.8911" cy="39.166" r="2.5" fill="#FAF4D9"/>
<circle cx="81.3696" cy="39.166" r="2.5" fill="#FAF4D9"/>
<circle cx="93.8478" cy="39.166" r="2.5" fill="#FAF4D9"/>
<circle cx="106.326" cy="39.166" r="2.5" fill="#FAF4D9"/>
<circle cx="118.804" cy="39.166" r="2.5" fill="#FAF4D9"/>
<circle cx="6.5" cy="54.999" r="2.5" fill="#FAF4D9"/>
<circle cx="18.9781" cy="54.999" r="2.5" fill="#FAF4D9"/>
<circle cx="31.4564" cy="54.999" r="2.5" fill="#FAF4D9"/>
<circle cx="43.9346" cy="54.999" r="2.5" fill="#FAF4D9"/>
<circle cx="56.413" cy="54.999" r="2.5" fill="#FAF4D9"/>
<circle cx="68.8911" cy="54.999" r="2.5" fill="#FAF4D9"/>
<circle cx="81.3696" cy="54.999" r="2.5" fill="#FAF4D9"/>
<circle cx="93.8478" cy="54.999" r="2.5" fill="#FAF4D9"/>
<circle cx="106.326" cy="54.999" r="2.5" fill="#FAF4D9"/>
<circle cx="118.804" cy="54.999" r="2.5" fill="#FAF4D9"/>
<circle cx="6.5" cy="70.8311" r="2.5" fill="#FAF4D9"/>
<circle cx="18.9781" cy="70.8311" r="2.5" fill="#FAF4D9"/>
<circle cx="31.4564" cy="70.8311" r="2.5" fill="#FAF4D9"/>
<circle cx="43.9346" cy="70.8311" r="2.5" fill="#FAF4D9"/>
<circle cx="56.413" cy="70.8311" r="2.5" fill="#FAF4D9"/>
<circle cx="68.8911" cy="70.8311" r="2.5" fill="#FAF4D9"/>
<circle cx="81.3696" cy="70.8311" r="2.5" fill="#FAF4D9"/>
<circle cx="93.8478" cy="70.8311" r="2.5" fill="#FAF4D9"/>
<circle cx="106.326" cy="70.8311" r="2.5" fill="#FAF4D9"/>
<circle cx="118.804" cy="70.8311" r="2.5" fill="#FAF4D9"/>
<circle cx="6.5" cy="86.665" r="2.5" fill="#FAF4D9"/>
<circle cx="18.9781" cy="86.665" r="2.5" fill="#FAF4D9"/>
<circle cx="31.4565" cy="86.665" r="2.5" fill="#FAF4D9"/>
<circle cx="43.9347" cy="86.665" r="2.5" fill="#FAF4D9"/>
<circle cx="56.4131" cy="86.665" r="2.5" fill="#FAF4D9"/>
<circle cx="68.8912" cy="86.665" r="2.5" fill="#FAF4D9"/>
<circle cx="81.3696" cy="86.665" r="2.5" fill="#FAF4D9"/>
<circle cx="93.8478" cy="86.665" r="2.5" fill="#FAF4D9"/>
<circle cx="106.326" cy="86.665" r="2.5" fill="#FAF4D9"/>
<circle cx="118.804" cy="86.665" r="2.5" fill="#FAF4D9"/>
<circle cx="131.283" cy="7.5" r="2.5" fill="#FAF4D9"/>
<circle cx="131.283" cy="23.332" r="2.5" fill="#FAF4D9"/>
<circle cx="131.283" cy="39.166" r="2.5" fill="#FAF4D9"/>
<circle cx="131.283" cy="54.999" r="2.5" fill="#FAF4D9"/>
<circle cx="131.283" cy="70.8311" r="2.5" fill="#FAF4D9"/>
<circle cx="131.283" cy="86.665" r="2.5" fill="#FAF4D9"/>
<circle cx="145.102" cy="7.5" r="2.5" fill="#FAF4D9"/>
<circle cx="145.102" cy="23.332" r="2.5" fill="#FAF4D9"/>
<circle cx="145.102" cy="39.166" r="2.5" fill="#FAF4D9"/>
<circle cx="145.102" cy="54.999" r="2.5" fill="#FAF4D9"/>
<circle cx="145.102" cy="70.8311" r="2.5" fill="#FAF4D9"/>
<circle cx="145.102" cy="86.665" r="2.5" fill="#FAF4D9"/>
</svg>
