<svg width="400" height="400" viewBox="0 0 400 400" fill="none" xmlns="http://www.w3.org/2000/svg">
<path d="M76.6512 76.5H177.86C177.887 76.5 177.901 76.5025 177.904 76.5033C177.909 76.5042 177.912 76.5052 177.915 76.5067C177.925 76.5106 177.945 76.5215 177.967 76.5443C177.99 76.567 178.001 76.5871 178.005 76.5962C178.006 76.5999 178.007 76.6031 178.008 76.6075C178.009 76.6111 178.012 76.6243 178.012 76.6512V177.86C178.012 177.887 178.009 177.901 178.008 177.904C178.007 177.909 178.006 177.912 178.005 177.915C178.001 177.925 177.99 177.945 177.967 177.967C177.945 177.99 177.925 178.001 177.915 178.005C177.912 178.006 177.909 178.007 177.904 178.008C177.901 178.009 177.887 178.012 177.86 178.012H76.6512C76.6243 178.012 76.6111 178.009 76.6075 178.008C76.6031 178.007 76.5999 178.006 76.5962 178.005C76.5871 178.001 76.567 177.99 76.5443 177.967C76.5215 177.945 76.5106 177.925 76.5067 177.915C76.5052 177.912 76.5042 177.909 76.5033 177.904C76.5025 177.901 76.5 177.887 76.5 177.86V76.6512C76.5 76.6243 76.5025 76.6111 76.5033 76.6075C76.5042 76.6031 76.5052 76.5999 76.5067 76.5962C76.5106 76.5871 76.5215 76.567 76.5443 76.5443C76.567 76.5215 76.5871 76.5106 76.5962 76.5067C76.5999 76.5052 76.6031 76.5042 76.6075 76.5033C76.6111 76.5025 76.6243 76.5 76.6512 76.5ZM222.14 221.988H323.349C323.376 221.988 323.389 221.991 323.393 221.992C323.397 221.993 323.4 221.994 323.404 221.995C323.413 221.999 323.433 222.01 323.456 222.033C323.478 222.055 323.489 222.076 323.493 222.085C323.495 222.088 323.496 222.091 323.497 222.096C323.497 222.099 323.5 222.113 323.5 222.14V323.349C323.5 323.376 323.497 323.389 323.497 323.393C323.496 323.397 323.495 323.4 323.493 323.404C323.489 323.413 323.478 323.433 323.456 323.456C323.433 323.478 323.413 323.489 323.404 323.493C323.402 323.494 323.4 323.495 323.399 323.495C323.397 323.496 323.395 323.496 323.393 323.497C323.391 323.497 323.387 323.498 323.381 323.499C323.373 323.499 323.363 323.5 323.349 323.5H222.14C222.113 323.5 222.099 323.497 222.096 323.497C222.091 323.496 222.088 323.495 222.085 323.493C222.076 323.489 222.055 323.478 222.033 323.456C222.01 323.433 221.999 323.413 221.995 323.404C221.994 323.4 221.993 323.397 221.992 323.393C221.991 323.389 221.988 323.376 221.988 323.349V222.14C221.988 222.113 221.991 222.099 221.992 222.096C221.993 222.091 221.994 222.088 221.995 222.085C221.999 222.076 222.01 222.055 222.033 222.033C222.055 222.01 222.076 221.999 222.085 221.995C222.088 221.994 222.091 221.993 222.096 221.992C222.099 221.991 222.113 221.988 222.14 221.988ZM76.6512 221.988H177.86C177.872 221.988 177.88 221.989 177.887 221.989C177.897 221.99 177.902 221.991 177.904 221.992C177.907 221.992 177.909 221.993 177.911 221.993C177.912 221.994 177.914 221.994 177.915 221.995C177.925 221.999 177.945 222.01 177.967 222.033C177.978 222.043 177.986 222.053 177.992 222.061C177.999 222.071 178.003 222.08 178.005 222.085C178.006 222.088 178.007 222.091 178.008 222.096C178.009 222.097 178.009 222.101 178.01 222.107C178.011 222.114 178.012 222.125 178.012 222.14V323.349C178.012 323.376 178.009 323.389 178.008 323.393C178.007 323.397 178.006 323.4 178.005 323.404C178.001 323.413 177.99 323.433 177.967 323.456C177.945 323.478 177.925 323.489 177.915 323.493C177.912 323.495 177.909 323.496 177.904 323.497C177.901 323.497 177.887 323.5 177.86 323.5H76.6512C76.6243 323.5 76.6111 323.497 76.6075 323.497C76.6031 323.496 76.5999 323.495 76.5962 323.493C76.5871 323.489 76.567 323.478 76.5443 323.456C76.5215 323.433 76.5106 323.413 76.5067 323.404C76.506 323.402 76.5054 323.401 76.5049 323.399C76.5043 323.397 76.5037 323.395 76.5033 323.393C76.5025 323.389 76.5 323.376 76.5 323.349V222.14C76.5 222.113 76.5025 222.099 76.5033 222.096C76.5042 222.091 76.5052 222.088 76.5067 222.085C76.5106 222.076 76.5215 222.055 76.5443 222.033C76.567 222.01 76.5871 221.999 76.5962 221.995C76.5999 221.994 76.6031 221.993 76.6075 221.992C76.6111 221.991 76.6243 221.988 76.6512 221.988ZM222.14 76.5H323.349C323.376 76.5 323.389 76.5025 323.393 76.5033C323.397 76.5042 323.4 76.5052 323.404 76.5067C323.413 76.5106 323.433 76.5215 323.456 76.5443C323.478 76.567 323.489 76.5871 323.493 76.5962C323.495 76.5999 323.496 76.6031 323.497 76.6075C323.497 76.6111 323.5 76.6243 323.5 76.6512V177.86C323.5 177.887 323.497 177.901 323.497 177.904C323.496 177.909 323.495 177.912 323.493 177.915C323.491 177.92 323.488 177.926 323.483 177.934C323.477 177.944 323.468 177.955 323.456 177.967C323.433 177.99 323.413 178.001 323.404 178.005C323.4 178.006 323.397 178.007 323.393 178.008C323.389 178.009 323.376 178.012 323.349 178.012H222.14C222.113 178.012 222.099 178.009 222.096 178.008C222.091 178.007 222.088 178.006 222.085 178.005C222.076 178.001 222.055 177.99 222.033 177.967C222.01 177.945 221.999 177.925 221.995 177.915C221.994 177.912 221.993 177.909 221.992 177.904C221.991 177.901 221.988 177.887 221.988 177.86V76.6512C221.988 76.6243 221.991 76.6111 221.992 76.6075C221.993 76.6031 221.994 76.5999 221.995 76.5962C221.999 76.5871 222.01 76.567 222.033 76.5443C222.055 76.5215 222.076 76.5106 222.085 76.5067C222.086 76.5062 222.087 76.5057 222.088 76.5053C222.091 76.5045 222.093 76.5038 222.096 76.5033C222.099 76.5025 222.113 76.5 222.14 76.5Z" stroke="#CAB422" stroke-width="25"/>
</svg>
