<svg width="400" height="400" viewBox="0 0 400 400" fill="none" xmlns="http://www.w3.org/2000/svg">
<path fill-rule="evenodd" clip-rule="evenodd" d="M98.9577 135.168C118.264 135.168 133.915 119.237 133.915 99.5842C133.915 79.9316 118.264 64 98.9577 64C79.6511 64 64 79.9316 64 99.5842C64 119.237 79.6511 135.168 98.9577 135.168ZM98.9577 115.168C106.885 115.168 113.915 108.528 113.915 99.5842C113.915 90.6409 106.885 84 98.9577 84C91.0302 84 84 90.6409 84 99.5842C84 108.528 91.0302 115.168 98.9577 115.168Z" fill="#CAB422"/>
<path d="M157.225 85.0717H336.634V115.072H157.225V85.0717Z" fill="#CAB422"/>
<path fill-rule="evenodd" clip-rule="evenodd" d="M133.915 200C133.915 219.653 118.264 235.584 98.9577 235.584C79.6511 235.584 64 219.653 64 200C64 180.347 79.6511 164.416 98.9577 164.416C118.264 164.416 133.915 180.347 133.915 200ZM113.915 200C113.915 208.943 106.885 215.584 98.9577 215.584C91.0302 215.584 84 208.943 84 200C84 191.057 91.0302 184.416 98.9577 184.416C106.885 184.416 113.915 191.057 113.915 200Z" fill="#CAB422"/>
<path d="M157.225 185.487V215.487H336.634V185.487H157.225Z" fill="#CAB422"/>
<path fill-rule="evenodd" clip-rule="evenodd" d="M133.915 300.416C133.915 320.068 118.264 336 98.9577 336C79.6511 336 64 320.068 64 300.416C64 280.763 79.6511 264.832 98.9577 264.832C118.264 264.832 133.915 280.763 133.915 300.416ZM113.915 300.416C113.915 309.359 106.885 316 98.9577 316C91.0302 316 84 309.359 84 300.416C84 291.472 91.0302 284.832 98.9577 284.832C106.885 284.832 113.915 291.472 113.915 300.416Z" fill="#CAB422"/>
<path d="M157.225 285.903V315.903H336.634V285.903H157.225Z" fill="#CAB422"/>
</svg>
