<svg width="84" height="87" viewBox="0 0 84 87" fill="none" xmlns="http://www.w3.org/2000/svg">
<path fill-rule="evenodd" clip-rule="evenodd" d="M43.7678 67.7678L59.6777 51.8579C60.654 50.8816 60.654 49.2986 59.6777 48.3223C58.7014 47.346 57.1184 47.346 56.1421 48.3223L44.5 59.9645V3C44.5 1.61929 43.3807 0.5 42 0.5C40.6193 0.5 39.5 1.61929 39.5 3V59.9645L27.8579 48.3223C26.8816 47.346 25.2986 47.346 24.3223 48.3223C23.346 49.2986 23.346 50.8816 24.3223 51.8579L40.2322 67.7678C41.2085 68.7441 42.7915 68.7441 43.7678 67.7678ZM2.5 45C1.11929 45 0 46.1193 0 47.5V72C0 80.2843 6.71573 87 15 87H68.9963C77.2806 87 83.9963 80.2843 83.9963 72V47.5C83.9963 46.1193 82.8771 45 81.4963 45C80.1156 45 78.9963 46.1193 78.9963 47.5V67C78.9963 75.2843 72.2806 82 63.9963 82H20C11.7157 82 5 75.2843 5 67V47.5C5 46.1193 3.88071 45 2.5 45Z" fill="black"/>
</svg>
