<svg width="84" height="84" viewBox="0 0 84 84" fill="none" xmlns="http://www.w3.org/2000/svg">
<path d="M42 0C18.8055 0 0 19.1 0 42.6576C0 62.6463 13.552 79.3716 31.822 84C31.626 83.4241 31.5 82.7558 31.5 81.9276V74.6367C29.7955 74.6367 26.9395 74.6367 26.222 74.6367C23.3485 74.6367 20.7935 73.3818 19.5545 71.0499C18.179 68.4584 17.941 64.4948 14.532 62.0704C13.5205 61.2635 14.2905 60.3428 15.456 60.4672C17.6085 61.0857 19.3935 62.5859 21.0735 64.8112C22.7465 67.04 23.534 67.5448 26.6595 67.5448C28.175 67.5448 30.443 67.4559 32.578 67.1147C33.726 64.1535 35.7105 61.427 38.136 60.1402C24.15 58.6791 17.4755 51.6122 17.4755 42.0178C17.4755 37.8871 19.208 33.8915 22.1515 30.5251C21.1855 27.1836 19.971 20.369 22.5225 17.774C28.8155 17.774 32.62 21.9189 33.5335 23.0387C36.6695 21.9474 40.1135 21.3288 43.7325 21.3288C47.3585 21.3288 50.8165 21.9474 53.9595 23.0458C54.8625 21.9331 58.6705 17.774 64.9775 17.774C67.5395 20.3726 66.311 27.2156 65.3345 30.55C68.2605 33.9093 69.9825 37.8942 69.9825 42.0178C69.9825 51.6051 63.3185 58.6685 49.3535 60.1366C53.1965 62.1735 56 67.8967 56 72.2087V81.9276C56 82.2973 55.9195 82.5639 55.8775 82.8802C72.2435 77.0539 84 61.2706 84 42.6576C84 19.1 65.1945 0 42 0Z" fill="black"/>
</svg>
