<svg width="84" height="70" viewBox="0 0 84 70" fill="none" xmlns="http://www.w3.org/2000/svg">
<path fill-rule="evenodd" clip-rule="evenodd" d="M10 0C4.47715 0 0 4.47715 0 10V60C0 65.5229 4.47715 70 10 70H74C79.5229 70 84 65.5229 84 60V10C84 4.47715 79.5228 0 74 0H10ZM13.8844 12.8839C12.2554 11.8432 10.0913 12.3201 9.05056 13.949C8.00986 15.5779 8.48671 17.7421 10.1156 18.7828L38.5005 36.9175C40.6343 38.2808 43.3657 38.2808 45.4995 36.9175L73.8844 18.7828C75.5133 17.7421 75.9901 15.5779 74.9494 13.949C73.9087 12.3201 71.7446 11.8432 70.1156 12.8839L42 30.8467L13.8844 12.8839Z" fill="black"/>
</svg>
