<svg width="112" height="83" viewBox="0 0 112 83" fill="none" xmlns="http://www.w3.org/2000/svg">
<path fill-rule="evenodd" clip-rule="evenodd" d="M68.3719 3.72647C68.7728 2.11884 67.7945 0.49065 66.1868 0.0898211C64.5792 -0.311008 62.951 0.667304 62.5502 2.27494L43.5983 78.2869C43.1974 79.8946 44.1757 81.5228 45.7834 81.9236C47.391 82.3244 49.0192 81.3461 49.42 79.7385L68.3719 3.72647ZM25.0069 25.1154C26.2385 24.007 26.3383 22.1101 25.2299 20.8786C24.1215 19.6471 22.2247 19.5472 20.9931 20.6556L1.02444 38.6274C0.974448 38.6713 0.925614 38.7171 0.878035 38.7647C0.296157 39.346 0.00024904 40.1142 1.56088e-07 40.8855C-0.000141817 41.3269 0.0965674 41.7693 0.291944 42.1782C0.435303 42.4788 0.63112 42.7598 0.878652 43.0069C0.926063 43.0544 0.974718 43.0999 1.02452 43.1436L20.9931 61.1154C22.2247 62.2238 24.1215 62.1239 25.2299 60.8924C26.3383 59.6609 26.2385 57.764 25.0069 56.6556L7.48457 40.8855L25.0069 25.1154ZM86.9932 25.1154C85.7617 24.007 85.6618 22.1101 86.7702 20.8786C87.8786 19.6471 89.7755 19.5472 91.007 20.6556L110.976 38.6274C111.026 38.6713 111.075 38.7171 111.122 38.7647C111.704 39.346 112 40.1142 112 40.8855C112 41.3269 111.904 41.7693 111.708 42.1782C111.565 42.4788 111.369 42.7598 111.121 43.0069C111.074 43.0544 111.025 43.0999 110.976 43.1436L91.007 61.1154C89.7755 62.2238 87.8786 62.1239 86.7702 60.8924C85.6618 59.6609 85.7617 57.764 86.9932 56.6556L104.516 40.8855L86.9932 25.1154Z" fill="#E8D676"/>
</svg>
