<svg width="104" height="46" viewBox="0 0 104 46" fill="none" xmlns="http://www.w3.org/2000/svg">
<path d="M25.4551 21.6758C28.1895 22.1836 30.2695 23.2773 31.6953 24.957C33.1406 26.6172 33.8633 28.7656 33.8633 31.4023C33.8633 33.5898 33.375 35.6113 32.3984 37.4668C31.4414 39.3223 30.1133 40.7773 28.4141 41.832C27.1641 42.6133 25.5918 43.1699 23.6973 43.502C21.8223 43.834 18.6875 44 14.293 44H0.142578L6.96875 1.10938H16.6953C20.4258 1.10938 23.0918 1.19727 24.6934 1.37305C26.2949 1.54883 27.6328 1.86133 28.707 2.31055C30.4844 3.01367 31.8906 4.17578 32.9258 5.79688C33.9805 7.41797 34.5078 9.25391 34.5078 11.3047C34.5078 14.1367 33.6973 16.4805 32.0762 18.3359C30.4746 20.1719 28.2676 21.2852 25.4551 21.6758ZM12.623 35.5918H14C17.4766 35.5918 19.7812 35.1719 20.9141 34.332C22.0664 33.4922 22.6426 32.0176 22.6426 29.9082C22.6426 28.3457 22.1543 27.2324 21.1777 26.5684C20.2012 25.9043 18.5508 25.5723 16.2266 25.5723H14.1758L12.623 35.5918ZM15.4355 17.7207H16.4023C19.1562 17.7207 21.0508 17.3594 22.0859 16.6367C23.1406 15.8945 23.668 14.6543 23.668 12.916C23.668 11.666 23.2383 10.7578 22.3789 10.1914C21.5391 9.60547 20.1816 9.3125 18.3066 9.3125H16.6953L15.4355 17.7207Z" fill="black"/>
<path d="M37.7012 44L44.4688 1.10938H56.0117L53.3457 17.6621H68.3457L70.9531 1.10938H82.5254L75.7285 44H64.1562L66.9102 26.4805H51.9688L49.2148 44H37.7012Z" fill="black"/>
<path d="M86.0703 39.1367C86.0703 37.5352 86.6465 36.1582 87.7988 35.0059C88.9707 33.834 90.377 33.248 92.0176 33.248C93.6777 33.248 95.0742 33.8145 96.207 34.9473C97.3594 36.0801 97.9355 37.4766 97.9355 39.1367C97.9355 40.8164 97.3594 42.2324 96.207 43.3848C95.0547 44.5176 93.6582 45.084 92.0176 45.084C90.377 45.084 88.9707 44.498 87.7988 43.3262C86.6465 42.1543 86.0703 40.7578 86.0703 39.1367ZM92.5449 0.142578H103.473L98.7852 29.791H87.8574L92.5449 0.142578Z" fill="black"/>
</svg>
